<?xml version="1.0" encoding="UTF-8" standalone="no"?>
<!DOCTYPE svg PUBLIC "-//W3C//DTD SVG 1.1//EN" "http://www.w3.org/Graphics/SVG/1.1/DTD/svg11.dtd">
<svg width="100%" height="100%" viewBox="0 0 500 500" version="1.1" xmlns="http://www.w3.org/2000/svg" xmlns:xlink="http://www.w3.org/1999/xlink" xml:space="preserve" xmlns:serif="http://www.serif.com/" style="fill-rule:evenodd;clip-rule:evenodd;stroke-linejoin:round;stroke-miterlimit:2;">
    <g transform="matrix(1.03513,0,0,1.02496,-17.5653,-12.482)">
        <rect x="16.969" y="12.178" width="483.031" height="487.822" style="fill:rgb(88,44,255);"/>
    </g>
    <g transform="matrix(3.20376e-16,-5.23214,4.46699,2.73524e-16,25.0592,508.419)">
        <g transform="matrix(1,0,0,1,2.17188,6.21725e-15)">
            <path d="M65.089,50.647C68.755,49.181 72.614,48.438 76.563,48.438L78.469,48.438L77.18,41.995C76.723,39.708 75.964,37.492 74.922,35.411C72.689,30.944 69.244,27.223 64.961,24.653L63.633,23.856C63.316,22.662 62.972,21.473 62.58,20.297L62.091,18.828C60.186,13.114 56.927,7.842 52.669,3.583L51.563,2.478L48.627,5.414C47.981,6.059 47.397,6.748 46.873,7.472C46.347,6.741 45.763,6.053 45.123,5.414L42.188,2.478L41.083,3.583C36.823,7.842 33.564,13.114 31.661,18.828L31.172,20.297C30.773,21.489 30.427,22.695 30.106,23.906L26.858,26.341C24.834,27.859 23.17,29.855 22.041,32.112C20.909,34.377 20.313,36.906 20.313,39.431L20.313,44.353L24.092,43.094C25.436,42.647 26.823,42.364 28.231,42.248C28.419,45.712 28.92,49.142 29.703,52.506C26.677,55.766 25,59.97 25,64.441L25,67.931L33.836,64.398C34.569,65.95 35.344,67.481 36.211,68.969C37.414,71.031 38.409,73.2 39.236,75.434L36.873,76.378C33.566,77.705 30.733,80.116 28.9,83.17C27.372,85.719 26.563,88.638 26.563,91.611L26.563,98.234L30.144,95.844C35.341,92.38 40.97,89.619 46.875,87.603C52.78,89.62 58.409,92.38 63.605,95.844L67.188,98.234L67.188,91.611C67.188,88.638 66.378,85.719 64.85,83.172C63.017,80.117 60.186,77.706 56.875,76.38L54.514,75.436C55.341,73.202 56.336,71.033 57.539,68.97C58.406,67.483 59.183,65.95 59.914,64.4L68.75,67.933L68.75,64.442C68.75,59.972 67.073,55.767 64.047,52.509C64.17,51.978 64.313,51.45 64.422,50.914L65.089,50.647ZM72.125,36.811C73.044,38.644 73.712,40.594 74.114,42.608L74.667,45.366C71.367,45.548 68.141,46.233 65.028,47.358C65.416,44.617 65.625,41.848 65.625,39.066C65.625,35.388 65.275,31.737 64.602,28.145C67.795,30.352 70.381,33.319 72.125,36.811ZM42.213,6.922L42.914,7.623C43.783,8.492 44.523,9.469 45.127,10.534C44.225,12.606 43.75,14.861 43.75,17.188L46.875,17.188C46.875,13.575 48.281,10.178 50.836,7.623L51.537,6.922C54.928,10.627 57.537,15.055 59.125,19.817L59.541,21.063L59.106,21.497C55.839,24.764 51.495,26.563 46.875,26.563C42.255,26.563 37.911,24.764 34.644,21.497L34.209,21.062L34.625,19.817C36.213,15.055 38.822,10.627 42.213,6.922ZM23.438,40.023L23.438,39.431C23.438,37.387 23.922,35.341 24.836,33.511C25.748,31.683 27.097,30.069 28.733,28.841L29.067,28.589C28.448,32.039 28.125,35.539 28.125,39.066C28.125,39.086 28.127,39.105 28.127,39.125C26.534,39.242 24.964,39.542 23.438,40.023ZM28.169,63.3C28.367,60.736 29.238,58.306 30.692,56.216C31.236,58.017 31.847,59.798 32.561,61.542L28.169,63.3ZM29.688,92.411L29.688,91.611C29.688,89.205 30.342,86.841 31.58,84.78C33.064,82.306 35.356,80.355 38.034,79.281L40.209,78.411C40.334,78.847 40.475,79.277 40.586,79.717L41.477,83.283C41.716,84.239 42.195,85.08 42.836,85.758C38.253,87.547 33.842,89.761 29.688,92.411ZM55.714,79.281C58.394,80.355 60.686,82.306 62.17,84.78C63.408,86.841 64.063,89.205 64.063,91.611L64.063,92.411C59.908,89.763 55.498,87.547 50.914,85.759C51.556,85.081 52.036,84.241 52.273,83.284L53.164,79.719C53.273,79.278 53.416,78.848 53.541,78.412L55.714,79.281ZM54.842,67.395C52.731,71.008 51.148,74.902 50.134,78.961L49.244,82.527C49.116,83.036 48.825,83.463 48.447,83.783C48.494,75.114 50.556,66.444 54.433,58.691C56.267,55.02 57.367,51.089 57.706,47.003L54.591,46.747C54.287,50.433 53.294,53.983 51.637,57.294C47.542,65.486 45.366,74.644 45.322,83.803C44.934,83.481 44.637,83.045 44.508,82.528L43.617,78.963C42.605,74.902 41.02,71.009 38.909,67.397C33.898,58.806 31.25,49.009 31.25,39.066C31.25,36.202 31.475,33.355 31.906,30.541C33.189,31.431 34.539,32.211 35.938,32.889L35.938,36.202C35.938,42.445 37.636,48.575 40.848,53.93L42.595,56.842L44.423,51.358C44.908,49.908 45.619,48.552 46.536,47.328C48.77,44.35 50,40.658 50,36.933L50,35.938L53.467,35.938L53.825,37.369C54.348,39.461 54.638,41.619 54.681,43.781L57.806,43.717C57.756,41.319 57.438,38.928 56.856,36.609L55.908,32.813L49.067,32.813C43.098,32.813 37.25,30.791 32.539,27.133C32.737,26.219 32.961,25.309 33.205,24.405C36.964,27.806 41.769,29.688 46.875,29.688C51.981,29.688 56.786,27.806 60.545,24.405C61.836,29.181 62.5,34.097 62.5,39.066C62.5,49.009 59.852,58.806 54.842,67.395ZM39.063,34.216C41.575,35.102 44.205,35.645 46.875,35.844L46.875,36.933C46.875,39.986 45.866,43.012 44.036,45.455C43.164,46.616 42.445,47.877 41.892,49.211C40.033,45.141 39.063,40.703 39.063,36.202L39.063,34.216ZM65.581,63.3L61.189,61.542C61.903,59.798 62.514,58.017 63.058,56.216C64.512,58.306 65.383,60.734 65.581,63.3Z" style="fill:white;fill-rule:nonzero;"/>
        </g>
        <rect x="51.563" y="17.188" width="3.125" height="3.125" style="fill:white;"/>
    </g>
</svg>
